# Blender v2.83.0 OBJ File: ''
# www.blender.org
mtllib billboard_tree.mtl
o Plane
v -2.840000 10.500000 0.000000
v 2.840000 10.500000 0.000000
v -2.840000 -0.099999 0.000000
v 2.840000 -0.099999 0.000000
v 0.000000 10.500000 2.840000
v -0.000000 10.500000 -2.840000
v 0.000000 -0.099999 2.840000
v -0.000000 -0.099999 -2.840000
vt 0.000000 0.000000
vt 1.000000 0.000000
vt 1.000000 1.000000
vt 0.000000 1.000000
vt 0.000000 0.000000
vt 1.000000 0.000000
vt 1.000000 1.000000
vt 0.000000 1.000000
vn 0.0000 0.0000 -1.0000
vn -1.0000 0.0000 0.0000
usemtl Billboard
s off
f 1/1/1 2/2/1 4/3/1 3/4/1
f 5/5/2 6/6/2 8/7/2 7/8/2
